<?xml version="1.0" standalone="no"?>
<!DOCTYPE svg PUBLIC "-//W3C//DTD SVG 20010904//EN"
 "http://www.w3.org/TR/2001/REC-SVG-20010904/DTD/svg10.dtd">
<svg version="1.0" xmlns="http://www.w3.org/2000/svg"
 width="300.000000pt" height="300.000000pt" viewBox="0 0 300.000000 300.000000"
 preserveAspectRatio="xMidYMid meet">

<g transform="translate(0.000000,300.000000) scale(0.100000,-0.100000)"
fill="#000000" stroke="none">
<path d="M1322 2990 c-618 -78 -1122 -520 -1273 -1117 -130 -515 17 -1058 386
-1429 370 -371 911 -523 1421 -399 427 103 788 393 984 790 69 139 100 229
131 375 32 150 32 408 1 567 -61 310 -192 554 -416 779 -222 222 -464 352
-770 415 -116 24 -350 33 -464 19z m-341 -298 c34 -17 65 -44 84 -71 28 -40
30 -49 30 -130 0 -80 -3 -93 -37 -163 -68 -136 -229 -260 -376 -288 -331 -65
-449 259 -188 515 119 118 219 163 357 164 65 1 85 -3 130 -27z m991 -708 c61
-20 142 -92 175 -158 21 -40 27 -70 31 -139 4 -83 3 -91 -27 -152 -35 -70 -86
-120 -160 -157 -38 -18 -62 -23 -136 -23 -106 0 -160 21 -229 91 -121 121
-128 319 -17 446 92 104 223 137 363 92z m-572 -575 c44 -76 141 -168 213
-203 217 -102 433 -62 605 112 l73 74 97 -22 c106 -24 328 -94 453 -142 59
-22 79 -34 79 -48 0 -35 -68 -226 -110 -311 -213 -423 -585 -704 -1055 -796
-135 -26 -406 -24 -542 5 -538 115 -955 497 -1113 1020 -12 40 -20 78 -17 86
11 27 451 167 660 210 191 39 438 71 572 75 l50 1 35 -61z"/>
<path d="M1790 1921 c-75 -24 -139 -82 -167 -150 -8 -19 -15 -60 -15 -91 0
-98 46 -177 131 -223 102 -56 231 -32 306 56 108 125 69 312 -79 389 -43 22
-136 32 -176 19z m188 -48 c197 -122 110 -426 -123 -426 -212 -1 -309 251
-153 400 51 49 93 64 166 59 47 -3 75 -11 110 -33z"/>
</g>
</svg>
